<svg width="23" height="22" fill="none" xmlns="http://www.w3.org/2000/svg"><path d="M14.67 11.002V11a3.666 3.666 0 1 0-1.074 2.593 3.524 3.524 0 0 0 1.074-2.537v-.058.003Zm1.98 0a5.624 5.624 0 1 1-1.647-3.996 5.429 5.429 0 0 1 1.648 3.901v.1-.005Zm1.547-5.872v.002a1.32 1.32 0 1 1-.387-.934c.235.23.38.551.38.906v.027-.001h.007ZM11.01 1.976 9.915 1.97a75.92 75.92 0 0 0-1.512 0c-.344.005-.805.02-1.382.043-.537.018-1.045.072-1.543.156l.067-.01c-.39.065-.735.157-1.066.279l.04-.013A3.774 3.774 0 0 0 2.435 4.49l-.01.025a5.478 5.478 0 0 0-.26.992l-.004.034c-.082.482-.13.969-.146 1.457l-.001.02a53.973 53.973 0 0 0-.043 1.381c-.005.344-.005.848 0 1.512l.007 1.095-.007 1.096a75.905 75.905 0 0 0 0 1.511c.005.344.019.805.043 1.383.018.536.071 1.045.156 1.542l-.01-.066c.065.39.156.735.278 1.066l-.013-.04a3.774 3.774 0 0 0 2.067 2.083l.024.01c.292.108.637.2.993.26l.034.004c.43.075.939.128 1.456.146h.019c.578.024 1.039.039 1.382.044.344.005.848.005 1.512 0l1.089-.022 1.095.007c.664.005 1.168.005 1.512 0 .344-.005.805-.02 1.382-.043a11.536 11.536 0 0 0 1.543-.156l-.067.01c.39-.065.735-.157 1.066-.278l-.04.012a3.774 3.774 0 0 0 2.083-2.066l.01-.024c.109-.292.2-.638.26-.993l.004-.034c.076-.43.129-.939.146-1.456l.001-.02c.024-.577.038-1.038.043-1.381.005-.344.005-.848 0-1.512l-.007-1.095.007-1.096a75.75 75.75 0 0 0 0-1.511c-.005-.344-.02-.805-.043-1.383a11.536 11.536 0 0 0-.156-1.542l.01.066a5.729 5.729 0 0 0-.278-1.066l.012.04a3.774 3.774 0 0 0-2.066-2.083l-.024-.01a5.478 5.478 0 0 0-.993-.26l-.034-.004a10.93 10.93 0 0 0-1.456-.146h-.019a53.976 53.976 0 0 0-1.382-.044 75.907 75.907 0 0 0-1.512 0l-1.089.021Zm10.994 9.026c0 2.186-.025 3.7-.074 4.54a6.085 6.085 0 0 1-6.403 6.387l.015.001c-.84.05-2.354.074-4.54.074-2.187 0-3.7-.025-4.54-.074a6.085 6.085 0 0 1-6.388-6.403v.015c-.05-.84-.074-2.354-.074-4.54 0-2.187.024-3.7.073-4.54A6.087 6.087 0 0 1 6.476.074h-.014C7.302.023 8.815 0 11.002 0c2.186 0 3.7.024 4.54.073a6.087 6.087 0 0 1 6.387 6.403l.001-.014c.05.84.074 2.353.074 4.54Z" fill="#fff"/></svg>